<mxfile host="app.diagrams.net" agent="Mozilla/5.0 (Windows NT 10.0; Win64; x64) AppleWebKit/537.36 (KHTML, like Gecko) Chrome/131.0.0.0 Safari/537.36" version="26.0.5" pages="5">
  <diagram name="Trang-1" id="neX8vu8eZu8ck3F0rIwb">
    <mxGraphModel dx="2338" dy="468" grid="0" gridSize="10" guides="1" tooltips="1" connect="1" arrows="1" fold="1" page="0" pageScale="1" pageWidth="827" pageHeight="1169" background="none" math="0" shadow="0">
      <root>
        <mxCell id="0" />
        <mxCell id="1" parent="0" />
        <mxCell id="w5ebQYz1-AV9nVypr26m-17" value="Book" style="rounded=0;whiteSpace=wrap;html=1;" parent="1" vertex="1">
          <mxGeometry x="-44" y="726" width="120" height="60" as="geometry" />
        </mxCell>
        <mxCell id="w5ebQYz1-AV9nVypr26m-18" value="Name" style="ellipse;whiteSpace=wrap;html=1;align=center;" parent="1" vertex="1">
          <mxGeometry x="-34" y="571" width="100" height="40" as="geometry" />
        </mxCell>
        <mxCell id="w5ebQYz1-AV9nVypr26m-19" value="Id" style="ellipse;whiteSpace=wrap;html=1;align=center;fontStyle=4;" parent="1" vertex="1">
          <mxGeometry x="-217" y="611" width="100" height="40" as="geometry" />
        </mxCell>
        <mxCell id="w5ebQYz1-AV9nVypr26m-20" value="Price" style="ellipse;whiteSpace=wrap;html=1;align=center;" parent="1" vertex="1">
          <mxGeometry x="158" y="617" width="100" height="40" as="geometry" />
        </mxCell>
        <mxCell id="w5ebQYz1-AV9nVypr26m-22" value="" style="endArrow=none;html=1;rounded=0;exitX=0.5;exitY=0;exitDx=0;exitDy=0;entryX=0.5;entryY=1;entryDx=0;entryDy=0;" parent="1" source="w5ebQYz1-AV9nVypr26m-17" target="w5ebQYz1-AV9nVypr26m-18" edge="1">
          <mxGeometry width="50" height="50" relative="1" as="geometry">
            <mxPoint x="401" y="868" as="sourcePoint" />
            <mxPoint x="451" y="818" as="targetPoint" />
          </mxGeometry>
        </mxCell>
        <mxCell id="w5ebQYz1-AV9nVypr26m-23" value="" style="endArrow=none;html=1;rounded=0;exitX=0;exitY=0;exitDx=0;exitDy=0;" parent="1" source="w5ebQYz1-AV9nVypr26m-17" target="w5ebQYz1-AV9nVypr26m-19" edge="1">
          <mxGeometry width="50" height="50" relative="1" as="geometry">
            <mxPoint x="26" y="736" as="sourcePoint" />
            <mxPoint x="26" y="621" as="targetPoint" />
          </mxGeometry>
        </mxCell>
        <mxCell id="w5ebQYz1-AV9nVypr26m-24" value="" style="endArrow=none;html=1;rounded=0;exitX=1;exitY=0;exitDx=0;exitDy=0;entryX=0;entryY=0.5;entryDx=0;entryDy=0;" parent="1" source="w5ebQYz1-AV9nVypr26m-17" target="w5ebQYz1-AV9nVypr26m-20" edge="1">
          <mxGeometry width="50" height="50" relative="1" as="geometry">
            <mxPoint x="36" y="746" as="sourcePoint" />
            <mxPoint x="36" y="631" as="targetPoint" />
          </mxGeometry>
        </mxCell>
        <mxCell id="w5ebQYz1-AV9nVypr26m-25" value="Author" style="rounded=0;whiteSpace=wrap;html=1;" parent="1" vertex="1">
          <mxGeometry x="549" y="726" width="120" height="60" as="geometry" />
        </mxCell>
        <mxCell id="w5ebQYz1-AV9nVypr26m-26" value="Name" style="ellipse;whiteSpace=wrap;html=1;align=center;" parent="1" vertex="1">
          <mxGeometry x="559" y="571" width="100" height="40" as="geometry" />
        </mxCell>
        <mxCell id="w5ebQYz1-AV9nVypr26m-27" value="Id" style="ellipse;whiteSpace=wrap;html=1;align=center;fontStyle=4;" parent="1" vertex="1">
          <mxGeometry x="376" y="611" width="100" height="40" as="geometry" />
        </mxCell>
        <mxCell id="w5ebQYz1-AV9nVypr26m-29" value="" style="endArrow=none;html=1;rounded=0;exitX=0.5;exitY=0;exitDx=0;exitDy=0;entryX=0.5;entryY=1;entryDx=0;entryDy=0;" parent="1" source="w5ebQYz1-AV9nVypr26m-25" target="w5ebQYz1-AV9nVypr26m-26" edge="1">
          <mxGeometry width="50" height="50" relative="1" as="geometry">
            <mxPoint x="994" y="868" as="sourcePoint" />
            <mxPoint x="1044" y="818" as="targetPoint" />
          </mxGeometry>
        </mxCell>
        <mxCell id="w5ebQYz1-AV9nVypr26m-30" value="" style="endArrow=none;html=1;rounded=0;exitX=0;exitY=0;exitDx=0;exitDy=0;" parent="1" source="w5ebQYz1-AV9nVypr26m-25" target="w5ebQYz1-AV9nVypr26m-27" edge="1">
          <mxGeometry width="50" height="50" relative="1" as="geometry">
            <mxPoint x="619" y="736" as="sourcePoint" />
            <mxPoint x="619" y="621" as="targetPoint" />
          </mxGeometry>
        </mxCell>
        <mxCell id="w5ebQYz1-AV9nVypr26m-33" value="Staff" style="rounded=0;whiteSpace=wrap;html=1;" parent="1" vertex="1">
          <mxGeometry x="-44" y="1007" width="120" height="60" as="geometry" />
        </mxCell>
        <mxCell id="w5ebQYz1-AV9nVypr26m-34" value="Name" style="ellipse;whiteSpace=wrap;html=1;align=center;" parent="1" vertex="1">
          <mxGeometry x="-34" y="1148" width="100" height="48" as="geometry" />
        </mxCell>
        <mxCell id="w5ebQYz1-AV9nVypr26m-35" value="Id" style="ellipse;whiteSpace=wrap;html=1;align=center;fontStyle=4;" parent="1" vertex="1">
          <mxGeometry x="-243" y="985" width="100" height="40" as="geometry" />
        </mxCell>
        <mxCell id="w5ebQYz1-AV9nVypr26m-36" value="Address" style="ellipse;whiteSpace=wrap;html=1;align=center;" parent="1" vertex="1">
          <mxGeometry x="203" y="985" width="100" height="40" as="geometry" />
        </mxCell>
        <mxCell id="w5ebQYz1-AV9nVypr26m-37" value="" style="endArrow=none;html=1;rounded=0;" parent="1" edge="1">
          <mxGeometry width="50" height="50" relative="1" as="geometry">
            <mxPoint x="16" y="1067" as="sourcePoint" />
            <mxPoint x="16" y="1147" as="targetPoint" />
          </mxGeometry>
        </mxCell>
        <mxCell id="w5ebQYz1-AV9nVypr26m-38" value="" style="endArrow=none;html=1;rounded=0;exitX=0;exitY=0;exitDx=0;exitDy=0;" parent="1" source="w5ebQYz1-AV9nVypr26m-33" target="w5ebQYz1-AV9nVypr26m-35" edge="1">
          <mxGeometry width="50" height="50" relative="1" as="geometry">
            <mxPoint x="35" y="1017" as="sourcePoint" />
            <mxPoint x="35" y="902" as="targetPoint" />
          </mxGeometry>
        </mxCell>
        <mxCell id="w5ebQYz1-AV9nVypr26m-39" value="" style="endArrow=none;html=1;rounded=0;exitX=1;exitY=0;exitDx=0;exitDy=0;entryX=0;entryY=0.5;entryDx=0;entryDy=0;" parent="1" source="w5ebQYz1-AV9nVypr26m-33" target="w5ebQYz1-AV9nVypr26m-36" edge="1">
          <mxGeometry width="50" height="50" relative="1" as="geometry">
            <mxPoint x="45" y="1027" as="sourcePoint" />
            <mxPoint x="45" y="912" as="targetPoint" />
          </mxGeometry>
        </mxCell>
        <mxCell id="w5ebQYz1-AV9nVypr26m-40" value="write" style="rhombus;whiteSpace=wrap;html=1;" parent="1" vertex="1">
          <mxGeometry x="261" y="715" width="80" height="80" as="geometry" />
        </mxCell>
        <mxCell id="w5ebQYz1-AV9nVypr26m-41" value="" style="endArrow=none;html=1;rounded=0;exitX=1;exitY=0.5;exitDx=0;exitDy=0;entryX=0;entryY=0.5;entryDx=0;entryDy=0;" parent="1" source="w5ebQYz1-AV9nVypr26m-17" target="w5ebQYz1-AV9nVypr26m-40" edge="1">
          <mxGeometry width="50" height="50" relative="1" as="geometry">
            <mxPoint x="86" y="736" as="sourcePoint" />
            <mxPoint x="168" y="647" as="targetPoint" />
          </mxGeometry>
        </mxCell>
        <mxCell id="w5ebQYz1-AV9nVypr26m-42" value="" style="endArrow=none;html=1;rounded=0;exitX=0;exitY=0.5;exitDx=0;exitDy=0;entryX=1;entryY=0.5;entryDx=0;entryDy=0;" parent="1" source="w5ebQYz1-AV9nVypr26m-25" target="w5ebQYz1-AV9nVypr26m-40" edge="1">
          <mxGeometry width="50" height="50" relative="1" as="geometry">
            <mxPoint x="96" y="746" as="sourcePoint" />
            <mxPoint x="178" y="657" as="targetPoint" />
          </mxGeometry>
        </mxCell>
        <mxCell id="w5ebQYz1-AV9nVypr26m-43" value="n" style="text;html=1;align=center;verticalAlign=middle;resizable=0;points=[];autosize=1;strokeColor=none;fillColor=none;" parent="1" vertex="1">
          <mxGeometry x="402" y="730" width="25" height="26" as="geometry" />
        </mxCell>
        <mxCell id="w5ebQYz1-AV9nVypr26m-44" value="n" style="text;html=1;align=center;verticalAlign=middle;resizable=0;points=[];autosize=1;strokeColor=none;fillColor=none;" parent="1" vertex="1">
          <mxGeometry x="135" y="730" width="25" height="26" as="geometry" />
        </mxCell>
        <mxCell id="w5ebQYz1-AV9nVypr26m-46" value="" style="endArrow=none;html=1;rounded=0;exitX=0.5;exitY=1;exitDx=0;exitDy=0;entryX=0;entryY=0.5;entryDx=0;entryDy=0;" parent="1" source="w5ebQYz1-AV9nVypr26m-17" edge="1">
          <mxGeometry width="50" height="50" relative="1" as="geometry">
            <mxPoint x="-181" y="897" as="sourcePoint" />
            <mxPoint x="16" y="861" as="targetPoint" />
          </mxGeometry>
        </mxCell>
        <mxCell id="w5ebQYz1-AV9nVypr26m-47" value="" style="endArrow=none;html=1;rounded=0;exitX=0.5;exitY=0;exitDx=0;exitDy=0;entryX=1;entryY=0.5;entryDx=0;entryDy=0;" parent="1" source="w5ebQYz1-AV9nVypr26m-33" edge="1">
          <mxGeometry width="50" height="50" relative="1" as="geometry">
            <mxPoint x="292" y="897" as="sourcePoint" />
            <mxPoint x="16" y="941" as="targetPoint" />
          </mxGeometry>
        </mxCell>
        <mxCell id="w5ebQYz1-AV9nVypr26m-51" value="n" style="text;html=1;align=center;verticalAlign=middle;resizable=0;points=[];autosize=1;strokeColor=none;fillColor=none;" parent="1" vertex="1">
          <mxGeometry x="24" y="818" width="25" height="26" as="geometry" />
        </mxCell>
        <mxCell id="w5ebQYz1-AV9nVypr26m-52" value="1" style="text;html=1;align=center;verticalAlign=middle;resizable=0;points=[];autosize=1;strokeColor=none;fillColor=none;" parent="1" vertex="1">
          <mxGeometry x="15" y="958" width="25" height="26" as="geometry" />
        </mxCell>
        <mxCell id="w5ebQYz1-AV9nVypr26m-53" value="oder" style="rhombus;whiteSpace=wrap;html=1;" parent="1" vertex="1">
          <mxGeometry x="-24" y="863" width="80" height="80" as="geometry" />
        </mxCell>
      </root>
    </mxGraphModel>
  </diagram>
  <diagram id="-ISKM6PGIvVVy2mD_K4e" name="Trang-2">
    <mxGraphModel dx="2338" dy="468" grid="0" gridSize="10" guides="1" tooltips="1" connect="1" arrows="1" fold="1" page="0" pageScale="1" pageWidth="827" pageHeight="1169" math="0" shadow="0">
      <root>
        <mxCell id="0" />
        <mxCell id="1" parent="0" />
        <mxCell id="oCmmpso_va9lKUVaAmd8-1" value="Person" style="rounded=0;whiteSpace=wrap;html=1;" parent="1" vertex="1">
          <mxGeometry x="-44" y="726" width="120" height="60" as="geometry" />
        </mxCell>
        <mxCell id="oCmmpso_va9lKUVaAmd8-2" value="name" style="ellipse;whiteSpace=wrap;html=1;align=center;" parent="1" vertex="1">
          <mxGeometry x="-34" y="571" width="100" height="40" as="geometry" />
        </mxCell>
        <mxCell id="oCmmpso_va9lKUVaAmd8-3" value="id" style="ellipse;whiteSpace=wrap;html=1;align=center;fontStyle=4;" parent="1" vertex="1">
          <mxGeometry x="-217" y="611" width="100" height="40" as="geometry" />
        </mxCell>
        <mxCell id="oCmmpso_va9lKUVaAmd8-5" value="" style="endArrow=none;html=1;rounded=0;exitX=0.5;exitY=0;exitDx=0;exitDy=0;entryX=0.5;entryY=1;entryDx=0;entryDy=0;" parent="1" source="oCmmpso_va9lKUVaAmd8-1" target="oCmmpso_va9lKUVaAmd8-2" edge="1">
          <mxGeometry width="50" height="50" relative="1" as="geometry">
            <mxPoint x="401" y="868" as="sourcePoint" />
            <mxPoint x="451" y="818" as="targetPoint" />
          </mxGeometry>
        </mxCell>
        <mxCell id="oCmmpso_va9lKUVaAmd8-6" value="" style="endArrow=none;html=1;rounded=0;exitX=0;exitY=0;exitDx=0;exitDy=0;" parent="1" source="oCmmpso_va9lKUVaAmd8-1" target="oCmmpso_va9lKUVaAmd8-3" edge="1">
          <mxGeometry width="50" height="50" relative="1" as="geometry">
            <mxPoint x="26" y="736" as="sourcePoint" />
            <mxPoint x="26" y="621" as="targetPoint" />
          </mxGeometry>
        </mxCell>
        <mxCell id="vg2l9FbHnuPvRkQoApW1-1" value="phone" style="ellipse;shape=doubleEllipse;margin=3;whiteSpace=wrap;html=1;align=center;" vertex="1" parent="1">
          <mxGeometry x="160" y="615" width="100" height="40" as="geometry" />
        </mxCell>
        <mxCell id="vg2l9FbHnuPvRkQoApW1-2" value="email" style="ellipse;shape=doubleEllipse;margin=3;whiteSpace=wrap;html=1;align=center;" vertex="1" parent="1">
          <mxGeometry x="215" y="736" width="100" height="40" as="geometry" />
        </mxCell>
        <mxCell id="vg2l9FbHnuPvRkQoApW1-3" value="" style="endArrow=none;html=1;rounded=0;exitX=1;exitY=0;exitDx=0;exitDy=0;" edge="1" parent="1" source="oCmmpso_va9lKUVaAmd8-1" target="vg2l9FbHnuPvRkQoApW1-1">
          <mxGeometry width="50" height="50" relative="1" as="geometry">
            <mxPoint x="26" y="736" as="sourcePoint" />
            <mxPoint x="26" y="621" as="targetPoint" />
          </mxGeometry>
        </mxCell>
        <mxCell id="vg2l9FbHnuPvRkQoApW1-4" value="" style="endArrow=none;html=1;rounded=0;exitX=1;exitY=0.5;exitDx=0;exitDy=0;entryX=0;entryY=0.5;entryDx=0;entryDy=0;" edge="1" parent="1" source="oCmmpso_va9lKUVaAmd8-1" target="vg2l9FbHnuPvRkQoApW1-2">
          <mxGeometry width="50" height="50" relative="1" as="geometry">
            <mxPoint x="36" y="746" as="sourcePoint" />
            <mxPoint x="36" y="631" as="targetPoint" />
          </mxGeometry>
        </mxCell>
      </root>
    </mxGraphModel>
  </diagram>
  <diagram id="uTpcVwfcEc9KDjAQq_ld" name="Trang-3">
    <mxGraphModel dx="1542" dy="828" grid="0" gridSize="10" guides="1" tooltips="1" connect="1" arrows="1" fold="1" page="0" pageScale="1" pageWidth="827" pageHeight="1169" math="0" shadow="0">
      <root>
        <mxCell id="0" />
        <mxCell id="1" parent="0" />
        <mxCell id="MZDhFZYKtajeeWt1PzC6-1" value="Customer" style="rounded=0;whiteSpace=wrap;html=1;" parent="1" vertex="1">
          <mxGeometry x="-44" y="726" width="120" height="60" as="geometry" />
        </mxCell>
        <mxCell id="MZDhFZYKtajeeWt1PzC6-2" value="name" style="ellipse;whiteSpace=wrap;html=1;align=center;" parent="1" vertex="1">
          <mxGeometry x="-34" y="571" width="100" height="40" as="geometry" />
        </mxCell>
        <mxCell id="MZDhFZYKtajeeWt1PzC6-3" value="id" style="ellipse;whiteSpace=wrap;html=1;align=center;fontStyle=4;" parent="1" vertex="1">
          <mxGeometry x="-212" y="611" width="100" height="40" as="geometry" />
        </mxCell>
        <mxCell id="MZDhFZYKtajeeWt1PzC6-4" value="" style="endArrow=none;html=1;rounded=0;exitX=0.5;exitY=0;exitDx=0;exitDy=0;entryX=0.5;entryY=1;entryDx=0;entryDy=0;" parent="1" source="MZDhFZYKtajeeWt1PzC6-1" target="MZDhFZYKtajeeWt1PzC6-2" edge="1">
          <mxGeometry width="50" height="50" relative="1" as="geometry">
            <mxPoint x="401" y="868" as="sourcePoint" />
            <mxPoint x="451" y="818" as="targetPoint" />
          </mxGeometry>
        </mxCell>
        <mxCell id="MZDhFZYKtajeeWt1PzC6-5" value="" style="endArrow=none;html=1;rounded=0;exitX=0;exitY=0;exitDx=0;exitDy=0;" parent="1" source="MZDhFZYKtajeeWt1PzC6-1" target="MZDhFZYKtajeeWt1PzC6-3" edge="1">
          <mxGeometry width="50" height="50" relative="1" as="geometry">
            <mxPoint x="26" y="736" as="sourcePoint" />
            <mxPoint x="26" y="621" as="targetPoint" />
          </mxGeometry>
        </mxCell>
        <mxCell id="MZDhFZYKtajeeWt1PzC6-6" value="Account" style="rounded=0;whiteSpace=wrap;html=1;" parent="1" vertex="1">
          <mxGeometry x="549" y="726" width="120" height="60" as="geometry" />
        </mxCell>
        <mxCell id="MZDhFZYKtajeeWt1PzC6-7" value="account_balance" style="ellipse;whiteSpace=wrap;html=1;align=center;" parent="1" vertex="1">
          <mxGeometry x="719" y="599" width="117" height="52" as="geometry" />
        </mxCell>
        <mxCell id="MZDhFZYKtajeeWt1PzC6-8" value="id" style="ellipse;whiteSpace=wrap;html=1;align=center;fontStyle=4;" parent="1" vertex="1">
          <mxGeometry x="559" y="574" width="100" height="40" as="geometry" />
        </mxCell>
        <mxCell id="MZDhFZYKtajeeWt1PzC6-9" value="" style="endArrow=none;html=1;rounded=0;exitX=1;exitY=0;exitDx=0;exitDy=0;entryX=0.5;entryY=1;entryDx=0;entryDy=0;" parent="1" source="MZDhFZYKtajeeWt1PzC6-6" target="MZDhFZYKtajeeWt1PzC6-7" edge="1">
          <mxGeometry width="50" height="50" relative="1" as="geometry">
            <mxPoint x="994" y="868" as="sourcePoint" />
            <mxPoint x="1044" y="818" as="targetPoint" />
          </mxGeometry>
        </mxCell>
        <mxCell id="MZDhFZYKtajeeWt1PzC6-10" value="" style="endArrow=none;html=1;rounded=0;exitX=0.5;exitY=0;exitDx=0;exitDy=0;" parent="1" source="MZDhFZYKtajeeWt1PzC6-6" target="MZDhFZYKtajeeWt1PzC6-8" edge="1">
          <mxGeometry width="50" height="50" relative="1" as="geometry">
            <mxPoint x="619" y="736" as="sourcePoint" />
            <mxPoint x="619" y="621" as="targetPoint" />
          </mxGeometry>
        </mxCell>
        <mxCell id="MZDhFZYKtajeeWt1PzC6-11" value="" style="endArrow=none;html=1;rounded=0;exitX=1;exitY=0.5;exitDx=0;exitDy=0;entryX=0;entryY=0.5;entryDx=0;entryDy=0;" parent="1" source="MZDhFZYKtajeeWt1PzC6-1" edge="1">
          <mxGeometry width="50" height="50" relative="1" as="geometry">
            <mxPoint x="86" y="736" as="sourcePoint" />
            <mxPoint x="261" y="755" as="targetPoint" />
          </mxGeometry>
        </mxCell>
        <mxCell id="MZDhFZYKtajeeWt1PzC6-12" value="" style="endArrow=none;html=1;rounded=0;exitX=0;exitY=0.5;exitDx=0;exitDy=0;entryX=1;entryY=0.5;entryDx=0;entryDy=0;" parent="1" source="MZDhFZYKtajeeWt1PzC6-6" edge="1">
          <mxGeometry width="50" height="50" relative="1" as="geometry">
            <mxPoint x="96" y="746" as="sourcePoint" />
            <mxPoint x="341" y="755" as="targetPoint" />
          </mxGeometry>
        </mxCell>
        <mxCell id="MZDhFZYKtajeeWt1PzC6-13" value="n" style="text;html=1;align=center;verticalAlign=middle;resizable=0;points=[];autosize=1;strokeColor=none;fillColor=none;" parent="1" vertex="1">
          <mxGeometry x="462" y="730" width="25" height="26" as="geometry" />
        </mxCell>
        <mxCell id="MZDhFZYKtajeeWt1PzC6-14" value="1" style="text;html=1;align=center;verticalAlign=middle;resizable=0;points=[];autosize=1;strokeColor=none;fillColor=none;" parent="1" vertex="1">
          <mxGeometry x="135" y="730" width="25" height="26" as="geometry" />
        </mxCell>
        <mxCell id="OFFAKAcPQ2AEMzi1V1t0-1" value="own" style="rhombus;whiteSpace=wrap;html=1;" parent="1" vertex="1">
          <mxGeometry x="261" y="715" width="80" height="80" as="geometry" />
        </mxCell>
      </root>
    </mxGraphModel>
  </diagram>
  <diagram id="vFCMjHX_fqxnKU3A4bh1" name="Trang-4">
    <mxGraphModel dx="1718" dy="190" grid="0" gridSize="10" guides="1" tooltips="1" connect="1" arrows="1" fold="1" page="0" pageScale="1" pageWidth="827" pageHeight="1169" math="0" shadow="0">
      <root>
        <mxCell id="0" />
        <mxCell id="1" parent="0" />
        <mxCell id="3gdn1celFfYgCP6ej37w-1" value="Student" style="rounded=0;whiteSpace=wrap;html=1;" parent="1" vertex="1">
          <mxGeometry x="-44" y="726" width="120" height="60" as="geometry" />
        </mxCell>
        <mxCell id="3gdn1celFfYgCP6ej37w-2" value="name" style="ellipse;whiteSpace=wrap;html=1;align=center;" parent="1" vertex="1">
          <mxGeometry x="-34" y="571" width="100" height="40" as="geometry" />
        </mxCell>
        <mxCell id="3gdn1celFfYgCP6ej37w-3" value="id" style="ellipse;whiteSpace=wrap;html=1;align=center;fontStyle=4;" parent="1" vertex="1">
          <mxGeometry x="-212" y="611" width="100" height="40" as="geometry" />
        </mxCell>
        <mxCell id="3gdn1celFfYgCP6ej37w-4" value="" style="endArrow=none;html=1;rounded=0;exitX=0.5;exitY=0;exitDx=0;exitDy=0;entryX=0.5;entryY=1;entryDx=0;entryDy=0;" parent="1" source="3gdn1celFfYgCP6ej37w-1" target="3gdn1celFfYgCP6ej37w-2" edge="1">
          <mxGeometry width="50" height="50" relative="1" as="geometry">
            <mxPoint x="401" y="868" as="sourcePoint" />
            <mxPoint x="451" y="818" as="targetPoint" />
          </mxGeometry>
        </mxCell>
        <mxCell id="3gdn1celFfYgCP6ej37w-5" value="" style="endArrow=none;html=1;rounded=0;exitX=0;exitY=0;exitDx=0;exitDy=0;" parent="1" source="3gdn1celFfYgCP6ej37w-1" target="3gdn1celFfYgCP6ej37w-3" edge="1">
          <mxGeometry width="50" height="50" relative="1" as="geometry">
            <mxPoint x="26" y="736" as="sourcePoint" />
            <mxPoint x="26" y="621" as="targetPoint" />
          </mxGeometry>
        </mxCell>
        <mxCell id="3gdn1celFfYgCP6ej37w-6" value="Teacher" style="rounded=0;whiteSpace=wrap;html=1;" parent="1" vertex="1">
          <mxGeometry x="549" y="726" width="120" height="60" as="geometry" />
        </mxCell>
        <mxCell id="3gdn1celFfYgCP6ej37w-7" value="name" style="ellipse;whiteSpace=wrap;html=1;align=center;" parent="1" vertex="1">
          <mxGeometry x="559" y="559" width="117" height="52" as="geometry" />
        </mxCell>
        <mxCell id="3gdn1celFfYgCP6ej37w-8" value="id" style="ellipse;whiteSpace=wrap;html=1;align=center;fontStyle=4;" parent="1" vertex="1">
          <mxGeometry x="376" y="611" width="100" height="40" as="geometry" />
        </mxCell>
        <mxCell id="3gdn1celFfYgCP6ej37w-9" value="" style="endArrow=none;html=1;rounded=0;exitX=0.5;exitY=0;exitDx=0;exitDy=0;entryX=0.5;entryY=1;entryDx=0;entryDy=0;" parent="1" source="3gdn1celFfYgCP6ej37w-6" target="3gdn1celFfYgCP6ej37w-7" edge="1">
          <mxGeometry width="50" height="50" relative="1" as="geometry">
            <mxPoint x="994" y="868" as="sourcePoint" />
            <mxPoint x="1044" y="818" as="targetPoint" />
          </mxGeometry>
        </mxCell>
        <mxCell id="3gdn1celFfYgCP6ej37w-10" value="" style="endArrow=none;html=1;rounded=0;exitX=0;exitY=0;exitDx=0;exitDy=0;" parent="1" source="3gdn1celFfYgCP6ej37w-6" target="3gdn1celFfYgCP6ej37w-8" edge="1">
          <mxGeometry width="50" height="50" relative="1" as="geometry">
            <mxPoint x="619" y="736" as="sourcePoint" />
            <mxPoint x="619" y="621" as="targetPoint" />
          </mxGeometry>
        </mxCell>
        <mxCell id="3gdn1celFfYgCP6ej37w-11" value="" style="endArrow=none;html=1;rounded=0;exitX=1;exitY=0.5;exitDx=0;exitDy=0;entryX=0;entryY=0.5;entryDx=0;entryDy=0;" parent="1" source="3gdn1celFfYgCP6ej37w-1" edge="1">
          <mxGeometry width="50" height="50" relative="1" as="geometry">
            <mxPoint x="86" y="736" as="sourcePoint" />
            <mxPoint x="261" y="755" as="targetPoint" />
          </mxGeometry>
        </mxCell>
        <mxCell id="3gdn1celFfYgCP6ej37w-12" value="" style="endArrow=none;html=1;rounded=0;exitX=0;exitY=0.5;exitDx=0;exitDy=0;entryX=1;entryY=0.5;entryDx=0;entryDy=0;" parent="1" source="3gdn1celFfYgCP6ej37w-6" edge="1">
          <mxGeometry width="50" height="50" relative="1" as="geometry">
            <mxPoint x="96" y="746" as="sourcePoint" />
            <mxPoint x="341" y="755" as="targetPoint" />
          </mxGeometry>
        </mxCell>
        <mxCell id="3gdn1celFfYgCP6ej37w-13" value="1" style="text;html=1;align=center;verticalAlign=middle;resizable=0;points=[];autosize=1;strokeColor=none;fillColor=none;" parent="1" vertex="1">
          <mxGeometry x="402" y="730" width="25" height="26" as="geometry" />
        </mxCell>
        <mxCell id="3gdn1celFfYgCP6ej37w-14" value="n" style="text;html=1;align=center;verticalAlign=middle;resizable=0;points=[];autosize=1;strokeColor=none;fillColor=none;" parent="1" vertex="1">
          <mxGeometry x="135" y="730" width="25" height="26" as="geometry" />
        </mxCell>
        <mxCell id="3gdn1celFfYgCP6ej37w-15" value="teach" style="rhombus;whiteSpace=wrap;html=1;" parent="1" vertex="1">
          <mxGeometry x="261" y="715" width="80" height="80" as="geometry" />
        </mxCell>
      </root>
    </mxGraphModel>
  </diagram>
  <diagram id="78iUyNGYWaPTBW-sBV05" name="Trang-5">
    <mxGraphModel dx="1832" dy="242" grid="0" gridSize="10" guides="1" tooltips="1" connect="1" arrows="1" fold="1" page="0" pageScale="1" pageWidth="827" pageHeight="1169" math="0" shadow="0">
      <root>
        <mxCell id="0" />
        <mxCell id="1" parent="0" />
        <mxCell id="pqayZ1Z8mPqyYnLl1Nyg-1" value="Player" style="rounded=0;whiteSpace=wrap;html=1;" parent="1" vertex="1">
          <mxGeometry x="-44" y="726" width="120" height="60" as="geometry" />
        </mxCell>
        <mxCell id="pqayZ1Z8mPqyYnLl1Nyg-2" value="name" style="ellipse;whiteSpace=wrap;html=1;align=center;" parent="1" vertex="1">
          <mxGeometry x="-34" y="571" width="100" height="40" as="geometry" />
        </mxCell>
        <mxCell id="pqayZ1Z8mPqyYnLl1Nyg-3" value="id" style="ellipse;whiteSpace=wrap;html=1;align=center;fontStyle=4;" parent="1" vertex="1">
          <mxGeometry x="-212" y="611" width="100" height="40" as="geometry" />
        </mxCell>
        <mxCell id="pqayZ1Z8mPqyYnLl1Nyg-4" value="" style="endArrow=none;html=1;rounded=0;exitX=0.5;exitY=0;exitDx=0;exitDy=0;entryX=0.5;entryY=1;entryDx=0;entryDy=0;" parent="1" source="pqayZ1Z8mPqyYnLl1Nyg-1" target="pqayZ1Z8mPqyYnLl1Nyg-2" edge="1">
          <mxGeometry width="50" height="50" relative="1" as="geometry">
            <mxPoint x="401" y="868" as="sourcePoint" />
            <mxPoint x="451" y="818" as="targetPoint" />
          </mxGeometry>
        </mxCell>
        <mxCell id="pqayZ1Z8mPqyYnLl1Nyg-5" value="" style="endArrow=none;html=1;rounded=0;exitX=0;exitY=0;exitDx=0;exitDy=0;" parent="1" source="pqayZ1Z8mPqyYnLl1Nyg-1" target="pqayZ1Z8mPqyYnLl1Nyg-3" edge="1">
          <mxGeometry width="50" height="50" relative="1" as="geometry">
            <mxPoint x="26" y="736" as="sourcePoint" />
            <mxPoint x="26" y="621" as="targetPoint" />
          </mxGeometry>
        </mxCell>
        <mxCell id="pqayZ1Z8mPqyYnLl1Nyg-7" value="birthday" style="ellipse;whiteSpace=wrap;html=1;align=center;" parent="1" vertex="1">
          <mxGeometry x="136" y="607" width="100" height="40" as="geometry" />
        </mxCell>
        <mxCell id="pqayZ1Z8mPqyYnLl1Nyg-8" value="" style="endArrow=none;html=1;rounded=0;exitX=1;exitY=0;exitDx=0;exitDy=0;" parent="1" source="pqayZ1Z8mPqyYnLl1Nyg-1" target="pqayZ1Z8mPqyYnLl1Nyg-7" edge="1">
          <mxGeometry width="50" height="50" relative="1" as="geometry">
            <mxPoint x="26" y="736" as="sourcePoint" />
            <mxPoint x="26" y="621" as="targetPoint" />
          </mxGeometry>
        </mxCell>
        <mxCell id="pqayZ1Z8mPqyYnLl1Nyg-9" value="Coach" style="rounded=0;whiteSpace=wrap;html=1;" parent="1" vertex="1">
          <mxGeometry x="462" y="720" width="120" height="60" as="geometry" />
        </mxCell>
        <mxCell id="pqayZ1Z8mPqyYnLl1Nyg-10" value="name" style="ellipse;whiteSpace=wrap;html=1;align=center;" parent="1" vertex="1">
          <mxGeometry x="472" y="565" width="100" height="40" as="geometry" />
        </mxCell>
        <mxCell id="pqayZ1Z8mPqyYnLl1Nyg-11" value="id" style="ellipse;whiteSpace=wrap;html=1;align=center;fontStyle=4;" parent="1" vertex="1">
          <mxGeometry x="294" y="605" width="100" height="40" as="geometry" />
        </mxCell>
        <mxCell id="pqayZ1Z8mPqyYnLl1Nyg-12" value="" style="endArrow=none;html=1;rounded=0;exitX=0.5;exitY=0;exitDx=0;exitDy=0;entryX=0.5;entryY=1;entryDx=0;entryDy=0;" parent="1" source="pqayZ1Z8mPqyYnLl1Nyg-9" target="pqayZ1Z8mPqyYnLl1Nyg-10" edge="1">
          <mxGeometry width="50" height="50" relative="1" as="geometry">
            <mxPoint x="907" y="862" as="sourcePoint" />
            <mxPoint x="957" y="812" as="targetPoint" />
          </mxGeometry>
        </mxCell>
        <mxCell id="pqayZ1Z8mPqyYnLl1Nyg-13" value="" style="endArrow=none;html=1;rounded=0;exitX=0;exitY=0;exitDx=0;exitDy=0;" parent="1" source="pqayZ1Z8mPqyYnLl1Nyg-9" target="pqayZ1Z8mPqyYnLl1Nyg-11" edge="1">
          <mxGeometry width="50" height="50" relative="1" as="geometry">
            <mxPoint x="532" y="730" as="sourcePoint" />
            <mxPoint x="532" y="615" as="targetPoint" />
          </mxGeometry>
        </mxCell>
        <mxCell id="pqayZ1Z8mPqyYnLl1Nyg-14" value="birthday" style="ellipse;whiteSpace=wrap;html=1;align=center;" parent="1" vertex="1">
          <mxGeometry x="642" y="601" width="100" height="40" as="geometry" />
        </mxCell>
        <mxCell id="pqayZ1Z8mPqyYnLl1Nyg-15" value="" style="endArrow=none;html=1;rounded=0;exitX=1;exitY=0;exitDx=0;exitDy=0;" parent="1" source="pqayZ1Z8mPqyYnLl1Nyg-9" target="pqayZ1Z8mPqyYnLl1Nyg-14" edge="1">
          <mxGeometry width="50" height="50" relative="1" as="geometry">
            <mxPoint x="532" y="730" as="sourcePoint" />
            <mxPoint x="532" y="615" as="targetPoint" />
          </mxGeometry>
        </mxCell>
        <mxCell id="pqayZ1Z8mPqyYnLl1Nyg-16" value="Team" style="whiteSpace=wrap;html=1;align=center;" parent="1" vertex="1">
          <mxGeometry x="457" y="926" width="122" height="64" as="geometry" />
        </mxCell>
        <mxCell id="pqayZ1Z8mPqyYnLl1Nyg-17" value="name" style="ellipse;whiteSpace=wrap;html=1;align=center;" parent="1" vertex="1">
          <mxGeometry x="644" y="1026" width="100" height="40" as="geometry" />
        </mxCell>
        <mxCell id="pqayZ1Z8mPqyYnLl1Nyg-18" value="id" style="ellipse;whiteSpace=wrap;html=1;align=center;fontStyle=4;" parent="1" vertex="1">
          <mxGeometry x="467" y="1066" width="100" height="40" as="geometry" />
        </mxCell>
        <mxCell id="pqayZ1Z8mPqyYnLl1Nyg-19" value="" style="endArrow=none;html=1;rounded=0;exitX=0.5;exitY=1;exitDx=0;exitDy=0;" parent="1" source="pqayZ1Z8mPqyYnLl1Nyg-16" target="pqayZ1Z8mPqyYnLl1Nyg-18" edge="1">
          <mxGeometry width="50" height="50" relative="1" as="geometry">
            <mxPoint x="472" y="730" as="sourcePoint" />
            <mxPoint x="376" y="653" as="targetPoint" />
          </mxGeometry>
        </mxCell>
        <mxCell id="pqayZ1Z8mPqyYnLl1Nyg-20" value="" style="endArrow=none;html=1;rounded=0;exitX=1;exitY=1;exitDx=0;exitDy=0;entryX=0;entryY=0;entryDx=0;entryDy=0;" parent="1" source="pqayZ1Z8mPqyYnLl1Nyg-16" target="pqayZ1Z8mPqyYnLl1Nyg-17" edge="1">
          <mxGeometry width="50" height="50" relative="1" as="geometry">
            <mxPoint x="482" y="740" as="sourcePoint" />
            <mxPoint x="386" y="663" as="targetPoint" />
          </mxGeometry>
        </mxCell>
        <mxCell id="pqayZ1Z8mPqyYnLl1Nyg-21" value="manage" style="shape=rhombus;perimeter=rhombusPerimeter;whiteSpace=wrap;html=1;align=center;" parent="1" vertex="1">
          <mxGeometry x="457" y="819" width="120" height="60" as="geometry" />
        </mxCell>
        <mxCell id="pqayZ1Z8mPqyYnLl1Nyg-22" value="" style="endArrow=none;html=1;rounded=0;exitX=0.45;exitY=1.017;exitDx=0;exitDy=0;exitPerimeter=0;entryX=0.5;entryY=0;entryDx=0;entryDy=0;" parent="1" source="pqayZ1Z8mPqyYnLl1Nyg-9" target="pqayZ1Z8mPqyYnLl1Nyg-21" edge="1">
          <mxGeometry width="50" height="50" relative="1" as="geometry">
            <mxPoint x="492" y="750" as="sourcePoint" />
            <mxPoint x="396" y="673" as="targetPoint" />
          </mxGeometry>
        </mxCell>
        <mxCell id="pqayZ1Z8mPqyYnLl1Nyg-23" value="" style="endArrow=none;html=1;rounded=0;exitX=0.5;exitY=1;exitDx=0;exitDy=0;entryX=0.5;entryY=0;entryDx=0;entryDy=0;" parent="1" source="pqayZ1Z8mPqyYnLl1Nyg-21" target="pqayZ1Z8mPqyYnLl1Nyg-16" edge="1">
          <mxGeometry width="50" height="50" relative="1" as="geometry">
            <mxPoint x="502" y="760" as="sourcePoint" />
            <mxPoint x="406" y="683" as="targetPoint" />
          </mxGeometry>
        </mxCell>
        <mxCell id="pqayZ1Z8mPqyYnLl1Nyg-29" value="Matches" style="whiteSpace=wrap;html=1;align=center;" parent="1" vertex="1">
          <mxGeometry x="-44" y="926" width="122" height="64" as="geometry" />
        </mxCell>
        <mxCell id="pqayZ1Z8mPqyYnLl1Nyg-30" value="date" style="ellipse;whiteSpace=wrap;html=1;align=center;" parent="1" vertex="1">
          <mxGeometry x="144" y="1054" width="100" height="40" as="geometry" />
        </mxCell>
        <mxCell id="pqayZ1Z8mPqyYnLl1Nyg-31" value="id" style="ellipse;whiteSpace=wrap;html=1;align=center;fontStyle=4;" parent="1" vertex="1">
          <mxGeometry x="-197" y="1066" width="100" height="40" as="geometry" />
        </mxCell>
        <mxCell id="pqayZ1Z8mPqyYnLl1Nyg-32" value="" style="endArrow=none;html=1;rounded=0;exitX=0;exitY=1;exitDx=0;exitDy=0;" parent="1" source="pqayZ1Z8mPqyYnLl1Nyg-29" target="pqayZ1Z8mPqyYnLl1Nyg-31" edge="1">
          <mxGeometry width="50" height="50" relative="1" as="geometry">
            <mxPoint x="-28" y="758" as="sourcePoint" />
            <mxPoint x="-124" y="681" as="targetPoint" />
          </mxGeometry>
        </mxCell>
        <mxCell id="pqayZ1Z8mPqyYnLl1Nyg-33" value="" style="endArrow=none;html=1;rounded=0;exitX=1;exitY=1;exitDx=0;exitDy=0;entryX=0;entryY=0;entryDx=0;entryDy=0;" parent="1" source="pqayZ1Z8mPqyYnLl1Nyg-29" target="pqayZ1Z8mPqyYnLl1Nyg-30" edge="1">
          <mxGeometry width="50" height="50" relative="1" as="geometry">
            <mxPoint x="-18" y="768" as="sourcePoint" />
            <mxPoint x="-114" y="691" as="targetPoint" />
          </mxGeometry>
        </mxCell>
        <mxCell id="pqayZ1Z8mPqyYnLl1Nyg-34" value="belong" style="shape=rhombus;perimeter=rhombusPerimeter;whiteSpace=wrap;html=1;align=center;rotation=15;" parent="1" vertex="1">
          <mxGeometry x="202" y="815" width="120" height="60" as="geometry" />
        </mxCell>
        <mxCell id="pqayZ1Z8mPqyYnLl1Nyg-35" value="" style="endArrow=none;html=1;rounded=0;exitX=1;exitY=1;exitDx=0;exitDy=0;entryX=0;entryY=0.5;entryDx=0;entryDy=0;" parent="1" source="pqayZ1Z8mPqyYnLl1Nyg-1" target="pqayZ1Z8mPqyYnLl1Nyg-34" edge="1">
          <mxGeometry width="50" height="50" relative="1" as="geometry">
            <mxPoint x="86" y="736" as="sourcePoint" />
            <mxPoint x="176" y="655" as="targetPoint" />
          </mxGeometry>
        </mxCell>
        <mxCell id="pqayZ1Z8mPqyYnLl1Nyg-36" value="" style="endArrow=none;html=1;rounded=0;exitX=1;exitY=0.5;exitDx=0;exitDy=0;entryX=0;entryY=0;entryDx=0;entryDy=0;" parent="1" source="pqayZ1Z8mPqyYnLl1Nyg-34" target="pqayZ1Z8mPqyYnLl1Nyg-16" edge="1">
          <mxGeometry width="50" height="50" relative="1" as="geometry">
            <mxPoint x="96" y="746" as="sourcePoint" />
            <mxPoint x="186" y="665" as="targetPoint" />
          </mxGeometry>
        </mxCell>
        <mxCell id="pqayZ1Z8mPqyYnLl1Nyg-37" value="1" style="text;html=1;align=center;verticalAlign=middle;resizable=0;points=[];autosize=1;strokeColor=none;fillColor=none;" parent="1" vertex="1">
          <mxGeometry x="370" y="864" width="25" height="26" as="geometry" />
        </mxCell>
        <mxCell id="pqayZ1Z8mPqyYnLl1Nyg-38" value="n" style="text;html=1;align=center;verticalAlign=middle;resizable=0;points=[];autosize=1;strokeColor=none;fillColor=none;" parent="1" vertex="1">
          <mxGeometry x="132" y="770" width="25" height="26" as="geometry" />
        </mxCell>
        <mxCell id="pqayZ1Z8mPqyYnLl1Nyg-39" value="1" style="text;html=1;align=center;verticalAlign=middle;resizable=0;points=[];autosize=1;strokeColor=none;fillColor=none;" parent="1" vertex="1">
          <mxGeometry x="524" y="885" width="25" height="26" as="geometry" />
        </mxCell>
        <mxCell id="pqayZ1Z8mPqyYnLl1Nyg-40" value="1" style="text;html=1;align=center;verticalAlign=middle;resizable=0;points=[];autosize=1;strokeColor=none;fillColor=none;" parent="1" vertex="1">
          <mxGeometry x="522" y="780" width="25" height="26" as="geometry" />
        </mxCell>
        <mxCell id="pqayZ1Z8mPqyYnLl1Nyg-46" value="train" style="shape=rhombus;perimeter=rhombusPerimeter;whiteSpace=wrap;html=1;align=center;" parent="1" vertex="1">
          <mxGeometry x="216" y="723" width="120" height="60" as="geometry" />
        </mxCell>
        <mxCell id="pqayZ1Z8mPqyYnLl1Nyg-47" value="" style="endArrow=none;html=1;rounded=0;exitX=1;exitY=0.5;exitDx=0;exitDy=0;entryX=0;entryY=0.5;entryDx=0;entryDy=0;" parent="1" source="pqayZ1Z8mPqyYnLl1Nyg-1" target="pqayZ1Z8mPqyYnLl1Nyg-46" edge="1">
          <mxGeometry width="50" height="50" relative="1" as="geometry">
            <mxPoint x="86" y="736" as="sourcePoint" />
            <mxPoint x="176" y="655" as="targetPoint" />
          </mxGeometry>
        </mxCell>
        <mxCell id="pqayZ1Z8mPqyYnLl1Nyg-48" value="" style="endArrow=none;html=1;rounded=0;exitX=1;exitY=0.5;exitDx=0;exitDy=0;entryX=0;entryY=0.5;entryDx=0;entryDy=0;" parent="1" source="pqayZ1Z8mPqyYnLl1Nyg-46" target="pqayZ1Z8mPqyYnLl1Nyg-9" edge="1">
          <mxGeometry width="50" height="50" relative="1" as="geometry">
            <mxPoint x="96" y="746" as="sourcePoint" />
            <mxPoint x="186" y="665" as="targetPoint" />
          </mxGeometry>
        </mxCell>
        <mxCell id="pqayZ1Z8mPqyYnLl1Nyg-49" value="n" style="text;html=1;align=center;verticalAlign=middle;resizable=0;points=[];autosize=1;strokeColor=none;fillColor=none;" parent="1" vertex="1">
          <mxGeometry x="130" y="725" width="25" height="26" as="geometry" />
        </mxCell>
        <mxCell id="pqayZ1Z8mPqyYnLl1Nyg-50" value="n" style="text;html=1;align=center;verticalAlign=middle;resizable=0;points=[];autosize=1;strokeColor=none;fillColor=none;" parent="1" vertex="1">
          <mxGeometry x="371" y="720" width="25" height="26" as="geometry" />
        </mxCell>
        <mxCell id="pqayZ1Z8mPqyYnLl1Nyg-53" value="" style="endArrow=none;html=1;rounded=0;exitX=1;exitY=0.5;exitDx=0;exitDy=0;" parent="1" source="ktlK1zfWbF0L-Zd3Qhts-1" target="pqayZ1Z8mPqyYnLl1Nyg-1" edge="1">
          <mxGeometry relative="1" as="geometry">
            <mxPoint x="-102" y="756.0000000000002" as="sourcePoint" />
            <mxPoint x="73" y="864" as="targetPoint" />
          </mxGeometry>
        </mxCell>
        <mxCell id="pqayZ1Z8mPqyYnLl1Nyg-56" value="join" style="shape=rhombus;perimeter=rhombusPerimeter;whiteSpace=wrap;html=1;align=center;" parent="1" vertex="1">
          <mxGeometry x="-44" y="825" width="120" height="60" as="geometry" />
        </mxCell>
        <mxCell id="pqayZ1Z8mPqyYnLl1Nyg-57" value="" style="endArrow=none;html=1;rounded=0;exitX=0.5;exitY=1;exitDx=0;exitDy=0;" parent="1" source="pqayZ1Z8mPqyYnLl1Nyg-1" target="pqayZ1Z8mPqyYnLl1Nyg-56" edge="1">
          <mxGeometry relative="1" as="geometry">
            <mxPoint x="189" y="916" as="sourcePoint" />
            <mxPoint x="349" y="916" as="targetPoint" />
          </mxGeometry>
        </mxCell>
        <mxCell id="pqayZ1Z8mPqyYnLl1Nyg-58" value="" style="endArrow=none;html=1;rounded=0;exitX=0.5;exitY=1;exitDx=0;exitDy=0;entryX=0.5;entryY=0;entryDx=0;entryDy=0;" parent="1" source="pqayZ1Z8mPqyYnLl1Nyg-56" target="pqayZ1Z8mPqyYnLl1Nyg-29" edge="1">
          <mxGeometry relative="1" as="geometry">
            <mxPoint x="26" y="796" as="sourcePoint" />
            <mxPoint x="26" y="846" as="targetPoint" />
          </mxGeometry>
        </mxCell>
        <mxCell id="pqayZ1Z8mPqyYnLl1Nyg-59" value="join" style="shape=rhombus;perimeter=rhombusPerimeter;whiteSpace=wrap;html=1;align=center;" parent="1" vertex="1">
          <mxGeometry x="211" y="926" width="120" height="60" as="geometry" />
        </mxCell>
        <mxCell id="pqayZ1Z8mPqyYnLl1Nyg-60" value="" style="endArrow=none;html=1;rounded=0;exitX=1;exitY=0.5;exitDx=0;exitDy=0;entryX=0;entryY=0.5;entryDx=0;entryDy=0;" parent="1" source="pqayZ1Z8mPqyYnLl1Nyg-29" target="pqayZ1Z8mPqyYnLl1Nyg-59" edge="1">
          <mxGeometry width="50" height="50" relative="1" as="geometry">
            <mxPoint x="71" y="963" as="sourcePoint" />
            <mxPoint x="171" y="862" as="targetPoint" />
          </mxGeometry>
        </mxCell>
        <mxCell id="pqayZ1Z8mPqyYnLl1Nyg-61" value="" style="endArrow=none;html=1;rounded=0;exitX=1;exitY=0.5;exitDx=0;exitDy=0;" parent="1" source="pqayZ1Z8mPqyYnLl1Nyg-59" target="pqayZ1Z8mPqyYnLl1Nyg-16" edge="1">
          <mxGeometry width="50" height="50" relative="1" as="geometry">
            <mxPoint x="91" y="953" as="sourcePoint" />
            <mxPoint x="457" y="957" as="targetPoint" />
          </mxGeometry>
        </mxCell>
        <mxCell id="pqayZ1Z8mPqyYnLl1Nyg-62" value="n" style="text;html=1;align=center;verticalAlign=middle;resizable=0;points=[];autosize=1;strokeColor=none;fillColor=none;" parent="1" vertex="1">
          <mxGeometry x="125" y="932" width="25" height="26" as="geometry" />
        </mxCell>
        <mxCell id="pqayZ1Z8mPqyYnLl1Nyg-63" value="n" style="text;html=1;align=center;verticalAlign=middle;resizable=0;points=[];autosize=1;strokeColor=none;fillColor=none;" parent="1" vertex="1">
          <mxGeometry x="366" y="927" width="25" height="26" as="geometry" />
        </mxCell>
        <mxCell id="pqayZ1Z8mPqyYnLl1Nyg-64" value="n" style="text;html=1;align=center;verticalAlign=middle;resizable=0;points=[];autosize=1;strokeColor=none;fillColor=none;" parent="1" vertex="1">
          <mxGeometry x="18" y="794" width="25" height="26" as="geometry" />
        </mxCell>
        <mxCell id="pqayZ1Z8mPqyYnLl1Nyg-65" value="n" style="text;html=1;align=center;verticalAlign=middle;resizable=0;points=[];autosize=1;strokeColor=none;fillColor=none;" parent="1" vertex="1">
          <mxGeometry x="19" y="892" width="25" height="26" as="geometry" />
        </mxCell>
        <mxCell id="ktlK1zfWbF0L-Zd3Qhts-1" value="positions" style="ellipse;shape=doubleEllipse;margin=3;whiteSpace=wrap;html=1;align=center;" vertex="1" parent="1">
          <mxGeometry x="-284" y="736" width="100" height="40" as="geometry" />
        </mxCell>
      </root>
    </mxGraphModel>
  </diagram>
</mxfile>
